<svg version="1.1" xmlns="http://www.w3.org/2000/svg" viewBox="0 0 2045.1763301576075 1098" width="6135.528990472822" height="3294">
  <!-- svg-source:excalidraw -->
  
  <defs>
    <style>
      @font-face {
        font-family: "Virgil";
        src: url("https://excalidraw.com/Virgil.woff2");
      }
      @font-face {
        font-family: "Cascadia";
        src: url("https://excalidraw.com/Cascadia.woff2");
      }
    </style>
  </defs>
  <rect x="0" y="0" width="2045.1763301576075" height="1098" fill="#ffffff"></rect><g stroke-linecap="round" transform="translate(368.8326655176148 10) rotate(0 556.5 539)"><path d="M-0.76 -0.42 C327.61 1.82, 654.24 1.98, 1112.46 0.44 M-0.02 0.22 C395.75 -1.64, 791.5 -1.51, 1113.08 0.39 M1113.66 -0.04 C1117.23 420.81, 1115.89 842.67, 1113.62 1078.31 M1112.82 -0.18 C1113.62 326.3, 1114.13 653.01, 1113.08 1078.17 M1112.8 1078.69 C836.41 1079.75, 559.66 1080.31, 0.6 1077.67 M1113.39 1078.35 C686.69 1080.63, 260.25 1080.63, 0.16 1077.76 M-0.66 1078.17 C-3.27 788.14, -3.07 499, -0.72 0.66 M0.07 1077.63 C2.19 695.08, 1.89 311.91, -0.03 0.14" stroke="#000000" stroke-width="1" fill="none"></path></g><g transform="translate(373.8326655176148 15) rotate(0 551.5 45)"><text x="551.5" y="32" font-family="Virgil, Segoe UI Emoji" font-size="36px" fill="#000000" text-anchor="middle" style="white-space: pre;" direction="ltr">vpc</text><text x="551.5" y="77" font-family="Virgil, Segoe UI Emoji" font-size="36px" fill="#000000" text-anchor="middle" style="white-space: pre;" direction="ltr">10.0.0.0/16</text></g><g stroke-linecap="round" transform="translate(1703.175355623021 40.6159927207506) rotate(0 97 77.0409698486328)"><path d="M0.43 -1.9 C42.5 -1.34, 84.7 -1.66, 192.39 -1.34 M0.7 -0.6 C63.19 -1.61, 126.48 -2.44, 193.82 -0.46 M195.87 -0.83 C192.39 52.97, 193.96 108.37, 192.05 153.15 M194.28 -0.26 C194.42 58.42, 194.83 116.55, 193.62 153.74 M192.88 153.43 C136.82 154.52, 78.03 152.73, 1.46 152.13 M194.1 154.86 C150.97 153.1, 108.18 153.65, 0.67 155.06 M0.15 155.21 C2.13 95.27, 2.18 39.8, 1.89 1.86 M0.7 153.74 C0.27 111.19, -0.14 67.71, -0.14 0.4" stroke="#5c940d" stroke-width="1" fill="none"></path></g><g transform="translate(1708.175355623021 80.15696256938341) rotate(0 92 37.499999999999986)"><text x="92" y="18" font-family="Virgil, Segoe UI Emoji" font-size="20px" fill="#5c940d" text-anchor="middle" style="white-space: pre;" direction="ltr">student-n</text><text x="92" y="43" font-family="Virgil, Segoe UI Emoji" font-size="20px" fill="#5c940d" text-anchor="middle" style="white-space: pre;" direction="ltr">laptop</text><text x="92" y="68" font-family="Virgil, Segoe UI Emoji" font-size="20px" fill="#5c940d" text-anchor="middle" style="white-space: pre;" direction="ltr">92.102.30.111</text></g><g stroke-linecap="round" transform="translate(737.0890506050456 121.1556152248456) rotate(0 200 155)"><path d="M-0.51 -0.19 C148.43 1.3, 298.8 1.68, 399.07 0.27 M0.08 -0.07 C157.46 2, 313.66 0.98, 400.19 0.42 M398.92 -1.28 C398.22 85.95, 399.87 173.28, 399.8 310.54 M400.26 0.65 C400.2 92.47, 399.74 184.56, 400.18 309.76 M399.07 311.11 C307.87 311.25, 215.22 310.75, 0.07 310.2 M399.57 309.66 C244.77 309.67, 88.55 310.3, 0.5 310.11 M0.54 310.64 C-1.11 211.01, -3.16 110.16, 0.38 -1.1 M0.1 309.7 C-0.23 236.7, 0.28 163.27, 0.15 -0.31" stroke="#862e9c" stroke-width="1" fill="none"></path></g><g transform="translate(742.0890506050456 126.1556152248456) rotate(0 195 35.000000000000014)"><text x="195" y="25" font-family="Virgil, Segoe UI Emoji" font-size="28px" fill="#862e9c" text-anchor="middle" style="white-space: pre;" direction="ltr">subnet-bastion</text><text x="195" y="60" font-family="Virgil, Segoe UI Emoji" font-size="28px" fill="#862e9c" text-anchor="middle" style="white-space: pre;" direction="ltr">10.0.0.0/24</text></g><g stroke-linecap="round" transform="translate(824.2088626167643 249.79834593773626) rotate(0 121 82.15386962890625)"><path d="M0.21 -0.76 C68.38 0.08, 139.28 0.16, 242.97 -0.86 M-0.04 -0.76 C58.06 0.66, 117.14 -0.6, 242.75 0.6 M240.52 -0.51 C240.58 54.87, 242.98 110.97, 241.12 163.61 M241.54 0.94 C240.95 42.17, 240.6 83.35, 242.22 163.76 M242.05 163.06 C147.5 164.82, 53.39 162.45, -0.65 164.67 M242.82 163.89 C178.18 164.98, 112.74 165.44, 0.63 163.67 M0.82 164.62 C-1.54 123.43, -0.45 85.49, 0.91 0.23 M0.77 163.82 C-0.59 101.34, 0.06 36.66, 0.9 0.14" stroke="#862e9c" stroke-width="1" fill="none"></path></g><g transform="translate(829.2088626167643 306.9522155666425) rotate(0 116 25)"><text x="116" y="18" font-family="Virgil, Segoe UI Emoji" font-size="20px" fill="#862e9c" text-anchor="middle" style="white-space: pre;" direction="ltr">bastion</text><text x="116" y="43" font-family="Virgil, Segoe UI Emoji" font-size="20px" fill="#862e9c" text-anchor="middle" style="white-space: pre;" direction="ltr">10.0.0.0/24</text></g><g stroke-linecap="round" transform="translate(408.7691094269825 491.8061918952794) rotate(0 135 224)"><path d="M-1.28 1.48 C108.37 -1.08, 214.21 -2.51, 270.17 1.07 M-0.08 0.22 C94.23 0.02, 188.72 1.01, 269.36 -0.46 M269.65 -0.77 C268.63 158.05, 269.6 316.02, 269.84 448.56 M269.56 -0.14 C269.99 153.53, 270.33 306.61, 269.79 448.39 M269.03 447.09 C188.53 447.26, 105.9 447.62, -1.22 449.24 M269.89 447.39 C197.86 448.61, 125.62 447.47, -0.74 447.44 M-0.39 447.19 C0.56 290.26, 0.66 131.92, 0.05 0.84 M0.03 448.25 C-1.65 269.55, -1.2 91.04, 0.23 0.37" stroke="#1864ab" stroke-width="1" fill="none"></path></g><g transform="translate(413.7691094269825 496.8061918952794) rotate(0 130 35)"><text x="130" y="25" font-family="Virgil, Segoe UI Emoji" font-size="28px" fill="#1864ab" text-anchor="middle" style="white-space: pre;" direction="ltr">subnet-student-0</text><text x="130" y="60" font-family="Virgil, Segoe UI Emoji" font-size="28px" fill="#1864ab" text-anchor="middle" style="white-space: pre;" direction="ltr">10.0.1.0/24</text></g><g stroke-linecap="round" transform="translate(418.324407278545 580.1774687507482) rotate(0 121 173.5)"><path d="M0.46 1.13 C60.24 -2.93, 121.06 -2.99, 243.44 -0.47 M-0.07 -0.49 C56.75 2.03, 114.31 1.23, 242.32 -0.16 M242.81 0.75 C241.03 125.73, 241.43 249.55, 243.21 347.93 M242.18 -0.29 C243.66 103.51, 243.68 207.66, 242.29 347.14 M242.95 346.23 C178.39 346.79, 115.04 349.62, 0.09 347.64 M242.32 347.63 C162.06 348.89, 82.57 348.29, -0.04 347.54 M-0.07 345.86 C-0.71 237.66, 0.04 128.58, -0.5 0.42 M-0.32 346.47 C0.06 213.56, 0.51 79.82, -0.51 0.29" stroke="#1864ab" stroke-width="1" fill="none"></path></g><g transform="translate(423.324407278545 585.1774687507482) rotate(0 116 37.5)"><text x="116" y="18" font-family="Virgil, Segoe UI Emoji" font-size="20px" fill="#1864ab" text-anchor="middle" style="white-space: pre;" direction="ltr">student-0</text><text x="116" y="43" font-family="Virgil, Segoe UI Emoji" font-size="20px" fill="#1864ab" text-anchor="middle" style="white-space: pre;" direction="ltr">BOSH Director</text><text x="116" y="68" font-family="Virgil, Segoe UI Emoji" font-size="20px" fill="#1864ab" text-anchor="middle" style="white-space: pre;" direction="ltr">10.0.1.6</text></g><g stroke-linecap="round" transform="translate(694.2747856965137 492.1814970710607) rotate(0 135 225.5)"><path d="M0.89 0.11 C92.63 0.64, 188.51 -0.29, 271.55 -0.99 M0.04 -0.71 C63.23 0.87, 126.95 0.88, 269.79 0.57 M269.54 -0.29 C270.75 126.24, 271.92 251.74, 270.89 451.8 M270.17 -0.36 C268.22 100.09, 269.08 201.05, 270.33 450.72 M269.51 451.76 C190.63 450.7, 110.95 449.99, 0.67 452.44 M270.3 451.52 C183.74 450.31, 98.09 449.28, -0.6 451.72 M-0.06 451.41 C-1.56 324.06, -1.51 198.96, 0.25 0.35 M-0.17 450.64 C0.11 329.74, -0.48 208.79, 0.32 0.26" stroke="#e67700" stroke-width="1" fill="none"></path></g><g transform="translate(699.2747856965137 497.1814970710607) rotate(0 130 35)"><text x="130" y="25" font-family="Virgil, Segoe UI Emoji" font-size="28px" fill="#e67700" text-anchor="middle" style="white-space: pre;" direction="ltr">subnet-student-1</text><text x="130" y="60" font-family="Virgil, Segoe UI Emoji" font-size="28px" fill="#e67700" text-anchor="middle" style="white-space: pre;" direction="ltr">10.0.2.0/24</text></g><g stroke-linecap="round" transform="translate(707.6238328624041 581.1635656278268) rotate(0 121 175)"><path d="M0.16 0.11 C92.32 -3.13, 183.05 -0.68, 242.61 1.06 M0.1 -0.33 C59.43 -0.52, 120.68 -1.48, 242.12 -0.18 M240.76 0.73 C239.73 135.31, 240.99 269.09, 242.87 351.12 M242.54 -0.2 C242.96 88.2, 242.3 177.21, 241.84 349.55 M241.67 348.63 C145.34 350.19, 48.64 351.99, 0.2 351.31 M242.33 350.52 C165.09 351.48, 88.87 352.42, -0.08 349.69 M-1.12 349.31 C1.77 274.91, 2.06 200.24, -0.45 -0.64 M0.47 350.43 C-1.69 270.36, -2.64 190.09, -0.32 0.39" stroke="#e67700" stroke-width="1" fill="none"></path></g><g transform="translate(712.6238328624041 586.1635656278268) rotate(0 116 37.5)"><text x="116" y="18" font-family="Virgil, Segoe UI Emoji" font-size="20px" fill="#e67700" text-anchor="middle" style="white-space: pre;" direction="ltr">student-1</text><text x="116" y="43" font-family="Virgil, Segoe UI Emoji" font-size="20px" fill="#e67700" text-anchor="middle" style="white-space: pre;" direction="ltr">BOSH Director</text><text x="116" y="68" font-family="Virgil, Segoe UI Emoji" font-size="20px" fill="#e67700" text-anchor="middle" style="white-space: pre;" direction="ltr">10.0.2.6</text></g><g stroke-linecap="round" transform="translate(1167.9174858918263 495.9274077155919) rotate(0 135 223.5)"><path d="M-0.61 -0.01 C88.29 0.11, 177.04 -0.09, 270.77 -0.33 M0.33 -0.77 C71.24 0.1, 144.09 0.98, 269.6 0.14 M270.64 0.88 C267.63 102.75, 267.89 206.48, 269.77 446.96 M269.76 0.21 C270.42 131.68, 270.07 263.08, 269.74 447.29 M268.82 446.02 C196.95 450.44, 122.37 448.31, -0.16 448.44 M269.67 447.17 C170.88 448.17, 72.55 448.62, -0.04 446.69 M0.24 447.63 C2.66 272.2, 2.4 98.16, -0.49 0.72 M0.13 447 C1.91 324.36, 2.17 201.44, 0.21 0.08" stroke="#5c940d" stroke-width="1" fill="none"></path></g><g transform="translate(1172.9174858918263 500.9274077155919) rotate(0 130 35)"><text x="130" y="25" font-family="Virgil, Segoe UI Emoji" font-size="28px" fill="#5c940d" text-anchor="middle" style="white-space: pre;" direction="ltr">subnet-student-n</text><text x="130" y="60" font-family="Virgil, Segoe UI Emoji" font-size="28px" fill="#5c940d" text-anchor="middle" style="white-space: pre;" direction="ltr">10.0.(n+1).0/24</text></g><g stroke-linecap="round" transform="translate(1182.9006167042662 582.2860689777647) rotate(0 121 175)"><path d="M0.55 -0.36 C92.08 0.69, 185.9 1, 242.78 -0.82 M0.29 -0.6 C86.78 -1.46, 174.43 -2.28, 241.25 0.43 M241.8 -0.9 C242.92 115.57, 242.27 228.97, 242.97 350.21 M242.36 0.23 C240.69 129.3, 240.26 257.21, 241.41 349.94 M243.11 349.53 C186.45 350.48, 129.4 349.73, 1.48 348.4 M241.62 349.34 C153.52 351.27, 64.17 350.79, 0.08 349.41 M-0.39 349.04 C-1.76 251.59, 0.33 151.71, -0.36 0.81 M-0.35 350.53 C-0.65 210.68, -0.98 71.76, 0.62 -0.63" stroke="#5c940d" stroke-width="1" fill="none"></path></g><g transform="translate(1187.9006167042662 587.2860689777647) rotate(0 116 37.5)"><text x="116" y="18" font-family="Virgil, Segoe UI Emoji" font-size="20px" fill="#5c940d" text-anchor="middle" style="white-space: pre;" direction="ltr">student-n</text><text x="116" y="43" font-family="Virgil, Segoe UI Emoji" font-size="20px" fill="#5c940d" text-anchor="middle" style="white-space: pre;" direction="ltr">BOSH Director</text><text x="116" y="68" font-family="Virgil, Segoe UI Emoji" font-size="20px" fill="#5c940d" text-anchor="middle" style="white-space: pre;" direction="ltr">10.0.(n+1).6</text></g><g stroke-linecap="round"><g transform="translate(1680.5069964570807 87.07698270560698) rotate(0 -294.6834694146777 118.81935260218074)"><path d="M23.33 -0.9 C-6.55 1.32, -71.9 -7.58, -155.16 13.82 C-238.43 35.21, -399.65 90.22, -476.25 127.48 C-552.85 164.74, -591.53 218.92, -614.76 237.38 M25.4 1.24 C-4.71 3.53, -72.54 -5.89, -156.26 14.85 C-239.99 35.59, -400.68 88.41, -476.96 125.69 C-553.25 162.98, -590.63 220.27, -613.98 238.56" stroke="#a61e4d" stroke-width="4" fill="none"></path></g></g><g stroke-linecap="round"><g transform="translate(1682.8273003847871 113.75172540488995) rotate(0 -297.082205140891 122.90870685856916)"><path d="M23.2 0.86 C-6.4 3.48, -72.28 -6.83, -155.71 14.85 C-239.14 36.53, -400.5 92.49, -477.37 130.94 C-554.25 169.39, -593.71 226.74, -616.98 245.56 M21.83 0.26 C-7.86 3.13, -74.09 -5.25, -156.89 16.18 C-239.69 37.6, -398.21 90.97, -474.95 128.84 C-551.7 166.71, -593.95 224.24, -617.36 243.38" stroke="#a61e4d" stroke-width="4" fill="none"></path></g></g><g transform="translate(1197.1181675992652 151.47140317181578) rotate(340.5981508941269 85 12.5)"><text x="0" y="18" font-family="Virgil, Segoe UI Emoji" font-size="20px" fill="#a61e4d" text-anchor="start" style="white-space: pre;" direction="ltr">bosh/cf cli tunnel</text></g><g transform="translate(990.0207525235476 676.5028296472489) rotate(35.465037274652424 94.21393791958798 11.835921849194449)"><text x="0" y="16.671843698388948" font-family="Virgil, Segoe UI Emoji" font-size="18.937474958711167px" fill="#d9480f" text-anchor="start" style="white-space: pre;" direction="ltr">bosh ssh/logs tunnel</text></g><g stroke-linecap="round" transform="translate(10 75.13474089742783) rotate(0 97 77.04096984863281)"><path d="M0.62 -1.02 C64.43 0.71, 131.77 0.94, 193.03 1.84 M0.08 0.5 C65.65 1.13, 131.5 0.34, 194.99 0.06 M195.53 -1.76 C193.22 55.12, 192.45 106.64, 194.43 155.97 M194.73 -0.27 C192.91 36.09, 192.39 74.33, 193.69 154.42 M193.73 155.48 C120.66 155.73, 43.52 155.92, -0.77 155.77 M193.2 154.02 C151.35 155.38, 111.02 154.78, 0.21 153.7 M1.77 154.79 C-0.53 92.74, 1.22 34.41, -0.97 -1.37 M0.55 153.81 C0.35 102.35, 0.14 50.88, 0.19 0.62" stroke="#495057" stroke-width="1" fill="none"></path></g><g transform="translate(15 114.67571074606064) rotate(0 92 37.5)"><text x="92" y="18" font-family="Virgil, Segoe UI Emoji" font-size="20px" fill="#495057" text-anchor="middle" style="white-space: pre;" direction="ltr">student-0</text><text x="92" y="43" font-family="Virgil, Segoe UI Emoji" font-size="20px" fill="#495057" text-anchor="middle" style="white-space: pre;" direction="ltr">laptop</text><text x="92" y="68" font-family="Virgil, Segoe UI Emoji" font-size="20px" fill="#495057" text-anchor="middle" style="white-space: pre;" direction="ltr">21.76.112.12</text></g><g stroke-linecap="round"><g transform="translate(206.41150032913015 111.84031064611867) rotate(0 261.2937360759094 30.14296214644274)"><path d="M-0.4 -0.85 C86.68 9.54, 435.52 51.16, 522.99 61.14" stroke="#5c940d" stroke-width="2.5" fill="none" stroke-dasharray="8 10"></path></g><g transform="translate(206.41150032913015 111.84031064611867) rotate(0 261.2937360759094 30.14296214644274)"><path d="M492.38 66.91 C505.56 67.04, 511.99 62.66, 521.77 60.9" stroke="#5c940d" stroke-width="2.5" fill="none"></path></g><g transform="translate(206.41150032913015 111.84031064611867) rotate(0 261.2937360759094 30.14296214644274)"><path d="M494.77 46.52 C506.93 53.65, 512.53 56.27, 521.77 60.9" stroke="#5c940d" stroke-width="2.5" fill="none"></path></g></g><g transform="translate(448.0883207854712 77.88870274859553) rotate(8.093617011581985 109 37.499999999999986)"><text x="0" y="18" font-family="Virgil, Segoe UI Emoji" font-size="20px" fill="#5c940d" text-anchor="start" style="white-space: pre;" direction="ltr">source: 21.76.112.19/32</text><text x="0" y="43" font-family="Virgil, Segoe UI Emoji" font-size="20px" fill="#5c940d" text-anchor="start" style="white-space: pre;" direction="ltr">ports: 22</text><text x="0" y="68" font-family="Virgil, Segoe UI Emoji" font-size="20px" fill="#5c940d" text-anchor="start" style="white-space: pre;" direction="ltr">type: ingress</text></g><g stroke-linecap="round"><g transform="translate(737.7530395409401 371.34447047313097) rotate(0 -149.05284768126415 57.648556859864755)"><path d="M-0.32 0.68 C-49.77 19.6, -248.05 95.43, -297.79 114.61" stroke="#364fc7" stroke-width="2.5" fill="none" stroke-dasharray="8 10"></path></g><g transform="translate(737.7530395409401 371.34447047313097) rotate(0 -149.05284768126415 57.648556859864755)"><path d="M-274.01 96.77 C-280.87 99.19, -283.61 103.04, -296.17 114.77" stroke="#364fc7" stroke-width="2.5" fill="none"></path></g><g transform="translate(737.7530395409401 371.34447047313097) rotate(0 -149.05284768126415 57.648556859864755)"><path d="M-266.65 115.93 C-275.22 114.35, -279.49 114.21, -296.17 114.77" stroke="#364fc7" stroke-width="2.5" fill="none"></path></g></g><g transform="translate(460.6001815167719 322.6113133136912) rotate(338.61995433155636 114.49999999999997 50)"><text x="0" y="18" font-family="Virgil, Segoe UI Emoji" font-size="20px" fill="#364fc7" text-anchor="start" style="white-space: pre;" direction="ltr">destination: 10.0.1.0/32</text><text x="0" y="43" font-family="Virgil, Segoe UI Emoji" font-size="20px" fill="#364fc7" text-anchor="start" style="white-space: pre;" direction="ltr">ports: 22, 6868, </text><text x="0" y="68" font-family="Virgil, Segoe UI Emoji" font-size="20px" fill="#364fc7" text-anchor="start" style="white-space: pre;" direction="ltr">8443, 8444, 25555</text><text x="0" y="93" font-family="Virgil, Segoe UI Emoji" font-size="20px" fill="#364fc7" text-anchor="start" style="white-space: pre;" direction="ltr">type: egress</text></g><g stroke-linecap="round" transform="translate(981.8411036927065 991.7693097488209) rotate(0 169.68080925581467 39.76011951704663)"><path d="M0 0 C0 0, 0 0, 0 0 M0 0 C0 0, 0 0, 0 0 M0.09 6.7 C1.06 4.34, 1.7 3.72, 4.94 0.32 M-0.34 6.55 C0.65 5.42, 1.63 3.47, 5.22 0.73 M1.31 12.48 C4.03 9.3, 6.87 4.32, 9.84 1.19 M0.79 11.86 C3.23 8.82, 6.81 4.93, 11.4 0.51 M0.17 20.37 C3.54 12.76, 10.35 5.79, 14.11 -1.64 M-1.03 17.58 C5.8 12.26, 10.54 5.74, 15.22 -0.14 M0.29 24.27 C8.88 15.76, 13.14 6.96, 21.88 0.16 M0.52 24.83 C7.58 14.16, 15.96 6.28, 22.14 -0.98 M0.69 28.68 C6.52 21.64, 16.54 14.96, 27.34 -0.26 M-0.55 31.03 C9.16 20.03, 20.46 7.46, 26.48 1.01 M0.97 38.67 C10.7 24.15, 20.49 14.83, 32.5 0.86 M-0.15 35.92 C10.48 24.7, 20.02 14.55, 31.75 -0.75 M-0.79 43.77 C12.03 28.94, 19.64 17.5, 35.27 -0.36 M-0.17 41.57 C10.25 31.94, 20.04 19.34, 36.27 0.52 M-0.45 47.64 C14.32 29.36, 28.18 12.8, 42.3 0.01 M0.23 49.35 C11.5 37.21, 20.64 25.47, 42.18 0.69 M0.37 56.19 C18.37 32.49, 36.45 9.84, 49.27 -0.86 M0.94 54.5 C16.56 35.21, 32.52 16.31, 46.9 -0.45 M-1.39 59.13 C17.87 40.65, 36.96 18.03, 53.73 -1.14 M0.39 60.92 C17.45 42.48, 35 21.3, 54.09 0.52 M-2.14 66.06 C13.57 53.03, 24.3 40.16, 59.37 -0.85 M-0.16 67.68 C14.42 50.49, 29.06 33.7, 59.12 -0.45 M0.04 72.2 C15.43 54.27, 29.2 37.22, 64.88 1.51 M0.14 72.05 C16.36 54.62, 32.69 35.92, 64.06 0.75 M-1.05 78.08 C25.98 48.2, 49.54 20.79, 68.24 -1.56 M-0.52 79.56 C22.06 52.7, 45.98 26.4, 69.11 -0.69 M1.04 80.71 C26.07 56.03, 48.41 30.67, 75.52 0.88 M3.34 82.45 C29.49 52.2, 54.09 23.15, 73.6 -0.8 M6.5 83.03 C24.19 60.89, 43.5 43.71, 81.21 -0.37 M7.66 81.59 C29.49 57.57, 51.94 31.83, 79.46 -0.03 M12.06 83.36 C40.64 53.22, 65.6 21.15, 85.05 0.77 M12.89 81.14 C33.09 57.23, 54.09 33.17, 84.15 0.53 M18.55 80.83 C36.86 64.41, 50.92 43.41, 88.29 -0.84 M17.62 82.41 C34.48 64.79, 50.14 46.62, 90.18 -0.03 M23.09 83.79 C42.18 60.8, 59.27 43.74, 94.56 -2.21 M24 81.56 C47.8 52.38, 73.87 23.84, 96.05 -0.76 M29.42 81.27 C50.56 53.77, 73.77 29.52, 102.13 1.32 M28.15 81.46 C44.35 66.25, 58.11 47.89, 99.72 0.08 M34.66 80.41 C62.01 50.03, 90.87 16.02, 104.76 -0.58 M34.17 82.43 C60.37 53.3, 83.79 24.21, 105.58 0.64 M39.71 81.92 C64.63 54.53, 85.54 29.33, 112.02 0.27 M40.59 82.01 C55.51 66.47, 70.54 47.79, 111.93 0.41 M43.96 81.49 C71.08 53.59, 96.13 25.2, 117.39 -1.28 M46.32 81.79 C69.14 53.69, 94.7 26.02, 117.27 0.64 M51.68 81.24 C75.15 51.15, 99.94 21.86, 121.92 1.98 M51.18 83.13 C67.38 62.83, 83.57 42.03, 121.08 -0.6 M54.8 83.15 C73.09 59.9, 92.79 41.38, 127.8 1.33 M55.8 82 C80.57 54.63, 104 28.61, 127.56 -0.32 M59.24 80.5 C77.59 63.57, 91.47 48.03, 132.47 -1.72 M60.12 82.74 C81.42 59.24, 100.62 35.72, 132.9 0.81 M67.7 83.33 C86.18 58.75, 106.59 34.73, 139.02 0.02 M67.37 82.79 C90.7 55.44, 114.75 27.19, 137.82 0.33 M69.97 81.83 C86.45 63.58, 103.45 45.05, 142.92 0.85 M72.5 82.56 C85.4 66.02, 99.58 49.57, 143.49 0.73 M77.79 79.82 C101.45 55.37, 121.68 28.66, 146.4 1.62 M78.21 82.16 C97.63 59.58, 118.1 35.79, 148.02 1.22 M83.09 82.19 C112.33 51.62, 136.68 17.17, 153.22 -0.81 M81.35 81.17 C101.38 60.26, 120.47 37.03, 154.41 0.57 M88.88 80.28 C104.45 63.37, 119.09 48.56, 158.97 1.82 M88.94 81.47 C102.24 65.08, 114.75 49.88, 159.04 0.81 M91.49 83.39 C119.66 51.2, 146.4 17.97, 165.94 -1.33 M92.61 82.97 C109.51 62.7, 126.93 43.24, 163.63 0.08 M99.44 80.18 C119.04 59.13, 140.05 35.49, 169.37 -0.84 M98.58 82.41 C124.68 50.95, 152.8 18.23, 169.69 0.38 M103.7 82.1 C131.81 48.97, 157.38 20.73, 176.33 -1.52 M104.15 81.17 C118.92 64.5, 133.45 45.83, 174.53 0.34 M108.57 80.85 C128.96 56.05, 153.61 30.09, 179.94 1 M109.6 82 C137.2 50.5, 164.56 17.99, 179.69 1.05 M113.93 83.81 C135.66 58.36, 154.45 35.78, 186.28 1.69 M114.75 82.83 C128.38 65.3, 144.29 47.99, 184.93 0.75 M117.41 84.21 C141.67 56.58, 164.42 30.97, 192.65 1.57 M118.21 82.32 C141.44 57.13, 162.19 32.23, 190.69 0.75 M124.02 80.86 C137.76 65.53, 154.46 47.2, 194.36 1.17 M125.13 81.83 C139.36 65.24, 153.68 48.34, 196.06 0.05 M129.69 83.78 C153.1 57.69, 171.46 33.61, 203.12 -0.07 M130.01 82.53 C146.38 62.4, 165.37 41.71, 201.25 -0.75 M133.48 82.44 C153.03 59.25, 173.51 35.51, 205.78 1.65 M134.92 81.87 C155.3 57.6, 176.23 33.32, 207.58 -0.72 M141.84 83.17 C169.55 47.82, 198.27 17.68, 210.66 1.97 M141.07 82.39 C160.35 60.29, 179.64 39.78, 211.88 -0.84 M145.47 80.59 C172.23 52.79, 199.19 19.62, 218.4 -2.27 M145.68 81.49 C169.69 56.89, 191.59 30.01, 218.56 -1.17 M151.61 83.07 C175.55 54.99, 196.3 29.16, 224.21 -1.53 M151.53 82.22 C168.04 61.89, 187.1 40.44, 221.99 0.9 M156.83 80.17 C185.52 48.34, 213.42 17.18, 228.74 -0.18 M155.88 81.05 C171.4 65.37, 185.18 49.86, 228.51 -0.57 M163.38 84.05 C178.99 62.55, 198.52 41.92, 232.36 -1.01 M161.96 82.67 C177.14 65.73, 192.94 47.71, 232.9 -0.27 M168.01 80.91 C183.61 64.25, 200.49 43.71, 237.34 0.93 M167.92 81.74 C186.29 59.92, 207.13 35.22, 237.69 -0.13 M174.23 80.47 C185.54 64.07, 203.82 46.13, 245.39 -2.01 M172.33 81.72 C187.98 66.33, 203.78 48.37, 242.89 0.72 M177.17 83.36 C205.56 52.91, 231.23 20.68, 249.33 -0.33 M177.11 82.59 C203.54 53.38, 230.88 21.83, 248.76 1 M183.86 82.59 C202.87 59.08, 218.71 39.32, 253.19 0.74 M183.05 81.69 C198.66 63.79, 213.73 47.87, 254.12 -0.21 M190.08 82.94 C207.28 62.52, 223.65 41.38, 260.56 -1.25 M188.71 81.44 C204.06 62.29, 220.6 42.42, 259.82 -0.71 M192.63 82.47 C213.15 59.89, 236.31 33.9, 263.35 1.37 M193.96 82.2 C210.12 61.09, 228.58 41.27, 265.7 0.67 M198.19 79.89 C223.42 52.44, 248.52 22.15, 270.17 -0.04 M198.88 81.97 C225.24 53.34, 249.92 23.54, 270.06 0.77 M203.58 84.04 C222.92 59.04, 243.72 39.95, 275.09 0.85 M203.29 81.23 C221.82 60.78, 240.33 40.28, 276.65 -0.07 M208.61 81.3 C234.79 55.23, 256.08 27.3, 281.97 -1.06 M209.69 82.68 C236.57 49.77, 263.18 18.44, 280.1 0.78 M216.38 81.06 C241.09 53.24, 263.15 24.89, 285.29 0.99 M214.73 82.06 C231.09 63.4, 245.69 45.36, 286.92 -0.02 M222.09 83.12 C236.57 62.61, 250.18 45.43, 290.43 -0.83 M220.16 81.9 C238.29 61.72, 256 41.67, 290.96 1.02 M225.36 83.15 C254.72 51.22, 279.93 18.49, 298.5 -1.56 M226.36 82.32 C243.38 60.09, 261.52 40.18, 296.38 0.02 M231.05 80.12 C248.19 58.02, 267.08 38.08, 302.65 1.99 M231.22 80.8 C250.28 58.68, 269.29 37.46, 301.1 0.49 M237.53 81.75 C252.57 62.02, 271.56 44.45, 308.9 -1.3 M235.7 82.96 C256.64 58.67, 279.69 32.32, 307.81 -0.89 M240.9 80.68 C260.68 57.83, 281.4 33.84, 312.42 0.57 M242.07 83.12 C260.75 62.2, 278.27 41.55, 313.39 0.53 M246.53 80.16 C261.09 62.31, 279.4 42.66, 318.35 -1.88 M246.69 81.26 C265.72 61.48, 282.69 40.91, 317.92 -0.87 M250.68 81.77 C275.48 56.17, 297.76 28.95, 322.16 1.91 M251.78 83.16 C278.17 51.39, 305.67 20.02, 324.13 -0.18 M258.66 83.53 C277.49 59.42, 301.45 34.17, 330.37 -2.11 M256.69 81.82 C285.58 49.3, 314.54 17.43, 328.35 -0.21 M263.12 83.44 C289.9 50.32, 316.12 19.92, 332.95 0.88 M262.4 81.32 C283.92 57.46, 307.17 32.48, 334.03 -0.65 M266.89 80.83 C288.14 59.96, 308.1 37.19, 340.11 -1.98 M267.48 81.57 C283.09 65.8, 297.69 49.08, 338.65 -0.37 M273.26 83.85 C288.13 61.76, 306.32 42.18, 340.59 0.45 M272.54 82.08 C293.61 58.64, 314.09 35.95, 343.27 1.7 M276.83 82.89 C302.94 57.63, 321.62 32.91, 340.51 8.47 M278.25 82.78 C299.26 56.13, 320.69 31.68, 341.43 8.05 M281.79 82.01 C302.36 60.1, 325.41 34.71, 342.23 13.46 M283.75 81.75 C299.34 64.23, 314.91 47.49, 341.19 15.84 M288.76 80.39 C302.26 68.37, 315.8 52.21, 341.32 18.9 M288.64 82.03 C300.14 68.49, 311.76 56.15, 342.32 20.22 M293.07 83.76 C306.26 66.08, 321.65 52.65, 340.79 26.99 M293.48 81.44 C309.81 63.35, 326.68 43.67, 341.63 26.41 M299.61 81.84 C312.81 68.66, 322.21 53.61, 343.28 30.86 M299.7 81.25 C310.69 67.93, 322.22 54.13, 343.29 32.14 M305.11 83.78 C318.12 64.81, 335.22 50.16, 343.32 40.02 M304.12 82.11 C316.8 68.34, 328.19 54.6, 342.32 38.5 M308.96 83.59 C315.62 72.63, 324 68.44, 343.53 44.51 M310.89 82.69 C320.07 70.13, 329.27 60.37, 342.9 46.41 M315.56 83.6 C321.7 74.58, 331.53 64.13, 342.18 52.62 M315.97 81.55 C325.63 70.48, 335.28 58.96, 343.1 51.72 M321.06 79.86 C324.76 75.7, 330 70.04, 342.82 58.59 M321.09 81.9 C326.53 75.42, 332.77 68.44, 342.64 57.2 M327.75 81.6 C332.9 75.79, 336.11 69.21, 344.41 64.73 M326.25 81.38 C331.88 75.53, 337.77 68.1, 342.21 64.05 M331 80.89 C333.1 77.81, 335.39 77.83, 343.34 69.08 M331.66 80.99 C335.98 76.3, 339.34 72.82, 342.01 69.73 M336.72 82.44 C337.66 81.41, 338.37 79.31, 341.61 75.56 M336.51 82.05 C338.36 79.51, 340.87 77.43, 342.28 75.83" stroke="#ced4da" stroke-width="0.5" fill="none"></path><path d="M-0.19 1 C74.38 -0.24, 148.83 -0.89, 339.02 0.22 M-0.22 0.21 C101.13 -2.11, 203.4 -2.01, 338.75 -0.26 M338.61 -0.79 C338.78 29.63, 339.3 61.06, 338.44 81.28 M339.71 -0.87 C340 19.64, 339.39 39.75, 340.2 80.31 M340.21 78.82 C232.98 81.35, 127.54 81.38, 0.07 80.11 M339.66 79.18 C246.47 77.14, 152.12 76.83, 0.01 79 M-0.9 79.38 C0.35 53.65, 1.54 28.3, 1.21 1.66 M-0.45 79.17 C-0.81 51.23, -0.21 24.98, 0.67 -0.61" stroke="#c92a2a" stroke-width="1" fill="none"></path></g><g transform="translate(986.8411036927065 1019.0294292658675) rotate(0 164.5 12.5)"><text x="164.5" y="18" font-family="Virgil, Segoe UI Emoji" font-size="20px" fill="#c92a2a" text-anchor="middle" style="white-space: pre;" direction="ltr">internet gateway</text></g><g stroke-linecap="round" transform="translate(503.53989830672606 992.2786031068026) rotate(0 169.68080925581467 39.76011951704663)"><path d="M0 0 C0 0, 0 0, 0 0 M0 0 C0 0, 0 0, 0 0 M0.14 6.84 C0.86 5.39, 2.32 3.39, 4.54 0.8 M-0.49 6.49 C1.22 4.89, 1.95 3.45, 5.23 0.72 M-0.08 12.53 C4.82 7.76, 7.25 2.75, 10.81 -1.56 M0.63 11.93 C3.46 7.53, 7.3 3.56, 10.26 0.47 M-1.54 16.83 C5.27 11.12, 12.96 5.54, 15.01 -1.58 M-0.72 17.83 C5.65 12.4, 11.7 5.71, 15.45 -0.32 M-0.77 23.86 C6.52 16.3, 10.4 8.95, 21.97 0.79 M-0.1 23.74 C9.53 15.44, 18.03 5.2, 21.31 0.75 M-1.81 32.25 C6.94 22.46, 16.94 10.82, 27.59 0.16 M-0.29 29.87 C7.11 22.54, 16.01 12.34, 25.55 -0.62 M0.69 37.45 C6.51 28.34, 14.11 16.72, 32.65 -0.18 M-0.91 37.81 C9.31 25.39, 18.49 14.88, 30.95 -0.75 M0.86 43.75 C13.83 24.52, 28.98 10.26, 37.05 0.91 M-0.45 43.5 C11.7 27.66, 23.81 14.2, 36.83 -0.15 M-0.88 50.02 C13.71 34.85, 22.6 23.21, 42.51 -2.03 M0.52 49.2 C11.27 37.38, 21.08 24.95, 42.06 -0.8 M0.19 54.03 C15.21 36.83, 33.15 16.26, 46.71 0.54 M-0.27 54.9 C10.21 42.59, 21.18 31.02, 46.58 -0.43 M-0.71 62.06 C20.11 40.09, 36.36 18.21, 54.02 0.69 M0.75 60.15 C16.56 41.01, 33.9 22.35, 52.46 0.15 M0.15 69.17 C14.8 49.77, 28.98 33.32, 57.69 -1.4 M-0.66 67.42 C13.46 51.7, 28.29 34.95, 57.4 0.87 M0.48 73.01 C22.93 47.26, 46.04 22.73, 62.5 -1.9 M0.32 72.11 C14.74 57.16, 28.09 41.44, 63.8 -0.97 M-0.54 77.66 C25.29 47.21, 51.58 18.77, 66.98 0.27 M-0.71 79.55 C21.76 52.88, 43.35 29.03, 68.23 1.07 M4.4 80.91 C24.78 55.9, 52 28.7, 74.09 -1.03 M2.72 82.4 C19.81 62.55, 38.14 42.85, 74.55 -0.76 M9.64 83.85 C25.76 62.67, 39.95 45.79, 77.41 -1.58 M7.19 81.44 C30.45 57.25, 53.16 29.46, 79.33 -0.64 M13.27 80.45 C28.34 65.76, 44.7 47.3, 83.8 0.74 M13.42 81.26 C42.11 50.75, 68.64 18.64, 85.01 -0.45 M18.55 83.08 C46.59 49.3, 73.38 18.19, 91.65 -0.45 M18.04 82.98 C43.92 52.7, 68.7 23.16, 89.3 -0.11 M24 83.07 C46.66 54.53, 73.89 25.88, 97.48 -0.51 M25.05 82.95 C43.01 60.52, 62.44 39.08, 96.31 -0.81 M27.55 82.32 C53.81 55.76, 73.08 33.48, 102.21 1.83 M28.28 81.48 C48.26 59.19, 69.9 36.58, 100.03 0.7 M35.24 82.81 C57.86 57.19, 77.37 30.25, 105.8 -0.03 M35.48 82.57 C59.19 52.61, 85.27 25.54, 105.4 -1.2 M41.43 82.2 C66.08 49.79, 95.57 19.64, 109.46 1.07 M38.81 82.63 C68.01 50.37, 95.41 18.97, 111.8 0.77 M45.47 83.36 C65.26 59.23, 84.6 36.05, 117.65 2.32 M44.89 82.17 C66.86 55.29, 89.92 30.08, 115.43 0.2 M51.87 81.99 C67.9 61.41, 85.37 45.11, 123.59 0.75 M51.34 82.56 C71.89 58.14, 92.56 32.44, 122.16 -1 M55.02 80.09 C83.69 52.21, 109.71 21, 128.7 1.09 M56.79 81.71 C79.92 55.34, 102.17 26.56, 127.3 0.36 M59.35 81.62 C88.39 49.57, 119.3 17.47, 130.65 -1.99 M61.43 82.81 C82.9 56.53, 104.34 32.9, 133.02 -0.79 M68.05 81.99 C96.48 47.18, 124.35 15.67, 139.53 -0.24 M67.03 82.06 C94.3 53, 119.9 22.65, 136.82 0.95 M71.23 83.67 C88.32 60.42, 107.36 38.54, 142.54 1.64 M71.46 81.37 C88.56 63.66, 105.02 44.51, 143.61 -0.86 M78.59 81.73 C97.11 58.91, 121.41 34.38, 148.19 1.68 M76.76 82.05 C96.62 59.07, 115.73 35.54, 148.24 0.29 M83.68 83.4 C104.97 54, 130.1 29.83, 154.98 -1.92 M81.63 81.6 C105.76 55.96, 129.39 29.86, 153.5 -0.54 M88.5 81.63 C103 66.69, 115.63 48.08, 159.59 0.88 M87.49 81.38 C110.21 56.56, 130.28 31.21, 158.67 1.12 M91.74 82.69 C120.6 51.24, 143.15 23.87, 165.56 1.44 M92.99 81.34 C108.15 65.5, 121.46 47.82, 163.56 0.75 M97.47 83.67 C122.27 56.35, 143.38 30.5, 167.49 0.04 M98.04 81.71 C127.05 49.34, 154.54 18.05, 169.03 -0.37 M103.29 80.11 C120.13 62.64, 135.34 46.8, 175.7 -0.54 M104.39 81.8 C125.41 57.23, 146.95 31.31, 175.01 0.52 M109.05 83.48 C137.2 48.86, 166.57 19.49, 180.46 0.51 M109.57 81.62 C125.53 60.16, 144.66 40.8, 179.07 0.41 M113.03 80.86 C132.19 63.43, 147.1 44.94, 184.65 -0.43 M113.52 82.65 C130.37 64.75, 146.95 45.02, 186.4 0.19 M119.98 81.11 C145.24 54.5, 165.4 26.26, 191.95 0.26 M119.89 82.33 C142.15 56.12, 165.68 28.37, 190.38 -0.54 M124.55 82.81 C138.59 63.79, 155.71 44.92, 195.54 -1.15 M123.91 82.97 C151.87 49.09, 180.24 16.24, 196.6 0.13 M128.8 84 C154.35 52.24, 182.07 23.19, 202.25 -0.05 M129.14 81.77 C146.41 64.98, 161.16 45.51, 201.37 -0.77 M136.23 82.49 C157.84 55.07, 180.72 30.46, 205.3 -2 M135.9 82.26 C163.21 49.68, 190.24 17.77, 207.8 0.6 M141.93 81.49 C154.51 63.03, 169.64 45.24, 212.47 0.88 M140.78 82.02 C157.26 61.64, 175.55 41.16, 212.28 -0.41 M147.33 81.08 C164.64 60.55, 183.83 38.15, 218.75 -0.58 M145.67 81.43 C159.82 63.98, 175.6 48.54, 218.54 -1.21 M150.3 83.85 C164.75 61.98, 180.64 44.89, 222.58 -0.98 M151.29 81.34 C172.5 57.65, 192.3 33.17, 222.17 0.8 M155.94 82.4 C179.99 54.8, 204.93 23.26, 226.51 1.16 M156.23 81.83 C173.03 62.27, 188.86 44.64, 228.67 -0.17 M162.67 80.99 C188.59 51.57, 214.43 23.09, 233.4 -1.01 M162.46 81.91 C189.13 50.68, 216.17 20.44, 233.95 0.57 M169 82.97 C188.2 54.45, 214.65 28.82, 238.42 -0.36 M166.4 82.23 C183.89 62.45, 201.73 42.39, 237.72 0.51 M171.65 80.48 C189.09 62.61, 205.04 46.4, 244.58 0.05 M172.41 82.83 C191.5 61.74, 207.89 40.8, 243.32 -0.98 M176.29 81.92 C193.32 65.62, 209.69 46.38, 248.12 0.73 M177.84 81.81 C205.92 49.12, 232.72 16.69, 248.5 1.28 M183.69 81.55 C203.83 58.83, 221.17 36.72, 252.61 -1.86 M182.58 83.12 C198.71 65.65, 213.65 47.87, 253.84 -0.29 M188.44 83.06 C212.92 54.1, 240.12 23.84, 259.12 2.19 M188.06 81.18 C208.25 61.25, 225.48 39.31, 260.22 -0.22 M193.09 81.09 C219.36 53.03, 241.37 26.78, 264.86 -0.16 M192.77 82.72 C216.85 55.99, 239.27 31.66, 265.9 0.61 M198.91 80.85 C222.38 53.69, 248.72 26.42, 269.43 0.67 M199.35 81.38 C227.25 50.72, 253.31 18.48, 270.03 0.8 M203.99 83.63 C229.24 50.75, 258.09 22.22, 277.49 0.4 M204.06 81.51 C228.61 54.49, 252.66 28.15, 275.69 -0.91 M210.01 82.41 C229.52 61.86, 245.43 42.57, 280.92 -1.5 M209.87 80.85 C233.41 55.25, 255.25 30.84, 281.43 0.08 M216.37 83.37 C233.46 58.94, 253.99 34.51, 285.55 1.72 M213.91 82.28 C227.95 65.08, 242.22 48.18, 286.26 -1.02 M218.91 81.51 C237.19 63.16, 250.53 44.13, 293.29 1.66 M220.58 82.48 C247.75 49.98, 274.99 20.42, 291.24 -0.73 M224.06 82.16 C241.08 61.14, 258.06 43.47, 296.9 -1.66 M225.06 81.73 C251.89 51.16, 280.14 20.1, 296.47 -0.5 M231.59 80.58 C257.37 54.71, 281.72 24.01, 302.09 1.77 M230.3 82.55 C253.75 55.01, 276.61 28.22, 302.62 0.94 M236.73 83.51 C250.98 63.6, 270.52 40.47, 306.26 -0.51 M236.61 81.49 C257.63 58.14, 278.19 33.67, 308 0.32 M240.25 81.47 C265.96 55.24, 287.79 29.39, 312.69 -1.86 M241.99 82.54 C256.6 62.11, 273.84 43.32, 312.05 -0.43 M245.9 82.58 C269.72 51.04, 294.23 23.55, 317.2 -0.97 M246.98 81.13 C266.77 58.32, 287.87 34.64, 318.39 0.51 M251.89 80.4 C264.68 66.02, 279.19 50.72, 322.35 -0.3 M252.43 83.09 C269.99 61.14, 288.91 38.47, 322.34 0.59 M258.92 80.2 C284.72 51.18, 314.38 18.61, 328.13 1.48 M256.91 81.11 C276.18 61.25, 296.26 40.06, 327.97 -0.43 M262.38 82.54 C277.06 61.46, 294.62 42.53, 334.14 -0.94 M263.23 81.5 C283.73 58.3, 303.88 35.77, 333.62 -0.68 M269.01 80.84 C287.11 55.07, 310.77 31.07, 338.28 0.03 M268.48 81.84 C285.36 61.7, 303.19 41.13, 338.92 0.43 M273.1 80.93 C290.34 63.24, 307.36 44.91, 341 0.73 M272.52 81.77 C287.38 64.41, 304.39 47.75, 342.39 2.29 M277.19 82.63 C301.64 52.67, 330.11 24.33, 341.89 7.56 M278.08 82.63 C293.43 65.75, 309.15 47.63, 342.38 9.48 M284.26 83.29 C299.53 65.09, 314.71 47.4, 340.49 14.95 M283.24 82.29 C302.75 58.76, 323.66 36.79, 341.23 15.98 M290.37 83.37 C302.12 66.23, 317.69 51.12, 343.14 22.53 M289.46 82.74 C308.65 60.7, 325.16 40.03, 342.42 21.45 M292.92 81.99 C306.75 70.36, 318.1 56.22, 343.06 25.94 M294.15 82.9 C310.84 63.07, 326.8 45.92, 342.09 26.17 M299.28 82.49 C311.56 69.55, 321.6 58.77, 342.42 33.08 M300.67 82.31 C309.22 70.27, 319.3 59.43, 343.34 32.51 M303 84.04 C321.39 66.42, 334.62 48, 342.5 37.71 M304.86 81.85 C315.45 70.17, 325.54 60.12, 341.79 38.64 M312.5 83.11 C317.74 74.99, 326.43 62.46, 341.72 43.76 M311.1 81.44 C320.88 69.84, 331.17 59.47, 341.96 46.02 M315.24 81.13 C321.38 75.08, 328.65 67.12, 341.12 51.13 M314.79 82.8 C321.23 74.66, 327.19 67.54, 342.08 51.33 M322.44 81.98 C328.83 76.52, 332.6 69.99, 343.81 59.52 M320.45 81.14 C329.31 74.36, 335.15 64.78, 341.9 57.51 M325.23 83.6 C328.8 76.86, 334.83 73.48, 343.04 62.73 M326.2 81.86 C330.34 77.57, 333.32 72.67, 342.08 64.12 M331.45 83.16 C334.11 79.51, 338.78 75.61, 342.34 68.52 M331.78 82.2 C336.36 77.34, 339.68 71.37, 342.59 70.07 M337.03 82.22 C339.36 80.62, 341.26 78.33, 342.65 75.81 M336.92 82.26 C338.71 79.74, 340.96 77.66, 342.23 76.23" stroke="#ced4da" stroke-width="0.5" fill="none"></path><path d="M-1.08 -0.89 C103.05 0.78, 207.23 1.56, 339.7 0.96 M0.54 0.21 C132.37 1.22, 264.7 1.62, 339.66 0.25 M339.87 -0.11 C338.64 22.39, 339.07 46.53, 338.95 80.3 M338.51 0.57 C340.89 19.02, 340.76 38.97, 340.1 79.8 M338.3 78.86 C212.99 81.58, 83.79 80.8, 1.09 79.22 M339.88 80.17 C252.83 79.3, 165.46 79.52, 0.1 80.16 M-0.61 78.01 C-2.12 62.38, 0.92 43.18, -1.8 -1.71 M-0.51 79.12 C-0.38 50.5, 0.68 20.37, 0.01 0.09" stroke="#c92a2a" stroke-width="1" fill="none"></path></g><g transform="translate(508.53989830672606 1019.5387226238493) rotate(0 164.5 12.5)"><text x="164.5" y="18" font-family="Virgil, Segoe UI Emoji" font-size="20px" fill="#c92a2a" text-anchor="middle" style="white-space: pre;" direction="ltr">NAT Gateway</text></g><g stroke-linecap="round"><g transform="translate(1704.9139733872607 97.45141195518127) rotate(0 -350.81287431550544 316.8933361318126)"><path d="M0.07 -0.97 C-20.66 -0.27, -66.46 -8.53, -125.22 3.31 C-183.98 15.16, -288.32 48.55, -352.49 70.09 C-416.66 91.62, -459.93 102.73, -510.24 132.52 C-560.56 162.31, -624.63 220.56, -654.38 248.83 C-684.13 277.09, -680.97 276.84, -688.76 302.1 C-696.55 327.35, -704 363.46, -701.13 400.36 C-698.25 437.26, -701.53 484.07, -671.51 523.5 C-641.5 562.92, -546.22 618.05, -521.05 636.9 M-1.36 1.13 C-22.08 2.06, -67.03 -6.63, -125.66 4.55 C-184.29 15.74, -289.17 46.82, -353.14 68.25 C-417.11 89.69, -459.56 102.94, -509.48 133.14 C-559.4 163.34, -622.48 221.49, -652.67 249.45 C-682.87 277.42, -682.74 275.94, -690.64 300.96 C-698.54 325.97, -703.15 362.02, -700.09 399.56 C-697.02 437.1, -701.86 486.89, -672.26 526.21 C-642.65 565.53, -547.37 617.16, -522.48 635.45" stroke="#d9480f" stroke-width="2" fill="none"></path></g></g><g stroke-linecap="round"><g transform="translate(1715.9044222006387 104.97995708059423) rotate(0 -358.2427546581014 310.5980770724609)"><path d="M-14.58 0.76 C-35.27 1.12, -79.72 -8.45, -137.27 2.79 C-194.83 14.02, -297.17 46.98, -359.92 68.15 C-422.67 89.33, -464.73 100.8, -513.78 129.82 C-562.83 158.85, -624.9 214.8, -654.21 242.31 C-683.51 269.82, -681.85 269.98, -689.61 294.87 C-697.36 319.77, -703.56 355.27, -700.72 391.68 C-697.87 428.09, -701.91 474.62, -672.54 513.32 C-643.18 552.01, -549.16 605.39, -524.54 623.87 M-12.98 0.12 C-33.85 0.54, -80.25 -7.2, -138.25 3.8 C-196.25 14.79, -297.9 44.96, -360.96 66.08 C-424.02 87.2, -467.51 101.15, -516.61 130.52 C-565.72 159.89, -627 214.56, -655.58 242.3 C-684.17 270.05, -680.22 272.24, -688.14 296.98 C-696.06 321.73, -705.56 354.81, -703.12 390.79 C-700.69 426.78, -703.05 474.24, -673.52 512.89 C-644 551.54, -550.92 604.17, -525.98 622.71" stroke="#d9480f" stroke-width="2" fill="none"></path></g></g><g stroke-linecap="round" transform="translate(1516.5277372286373 421.29123314597643) rotate(0 259.324296464485 209.82161607891447)"><path d="M0.09 -0.71 C153.75 -1.49, 307.1 -0.78, 518.6 -0.2 M0.2 0.13 C105.79 0.83, 211.56 1.32, 518.82 -0.25 M517.68 -0.37 C516.95 107.52, 518.04 214.93, 519.47 419.48 M518.4 -0.16 C519.64 100.34, 519.54 201.14, 518.59 419.32 M518.56 420.15 C325.45 419.3, 132.26 420.09, -0.38 419.96 M518.47 419.75 C342.4 421.29, 165.41 422, 0.03 419.45 M-0.48 420.62 C-0.91 291.04, -1.63 164.09, 0.5 0.7 M-0.12 420.02 C1.13 316.85, 0.97 215.12, -0.2 -0.45" stroke="#000000" stroke-width="1" fill="none"></path></g><g stroke-linecap="round"><g transform="translate(1537.154106321008 504.1218337971818) rotate(0 35.32240093402277 0.4662819705591801)"><path d="M0.34 -0.67 C12.28 -0.59, 59.86 1.15, 71.59 1.6 M-0.94 1.59 C10.93 1.84, 59.35 0.07, 71.18 -0.15" stroke="#a61e4d" stroke-width="2" fill="none"></path></g></g><g stroke-linecap="round"><g transform="translate(1538.512670019551 513.8281046280215) rotate(0 34.95877356461892 -0.006246048192622311)"><path d="M-0.09 0.27 C11.89 0.27, 59.9 -0.21, 71.51 -0.3 M-1.6 -0.63 C10.34 -0.51, 58.81 0.44, 71.06 0.62" stroke="#a61e4d" stroke-width="2" fill="none"></path></g></g><g transform="translate(1624.7955466419826 488.98778857283344) rotate(0 159 37.5)"><text x="0" y="18" font-family="Virgil, Segoe UI Emoji" font-size="20px" fill="#a61e4d" text-anchor="start" style="white-space: pre;" direction="ltr">socks5 tunnel from student-n</text><text x="0" y="43" font-family="Virgil, Segoe UI Emoji" font-size="20px" fill="#a61e4d" text-anchor="start" style="white-space: pre;" direction="ltr">laptop to bastion instance,</text><text x="0" y="68" font-family="Virgil, Segoe UI Emoji" font-size="20px" fill="#a61e4d" text-anchor="start" style="white-space: pre;" direction="ltr">tunnel exposed on socket 12345</text></g><g stroke-linecap="round"><g transform="translate(1539.8764545517333 611.3720405055716) rotate(0 34.50777162722966 0.32007173553188295)"><path d="M0.19 -0.79 C12.08 -0.46, 58.57 1.14, 70.19 1.43 M-1.17 1.42 C10.64 1.44, 57.39 -0.56, 69.04 -0.41" stroke="#d9480f" stroke-width="2" fill="none"></path></g></g><g stroke-linecap="round"><g transform="translate(1541.2350182502764 621.078311336411) rotate(0 35.16170510352299 -0.11735261518424522)"><path d="M-0.79 -0.38 C11.16 -0.37, 59.21 -0.2, 71.11 0.2 M1 -1.62 C12.88 -1.49, 58.96 1.06, 70.45 1.39" stroke="#d9480f" stroke-width="2" fill="none"></path></g></g><g transform="translate(1627.3370478878396 596.2379952812231) rotate(0 183 50)"><text x="0" y="18" font-family="Virgil, Segoe UI Emoji" font-size="20px" fill="#d9480f" text-anchor="start" style="white-space: pre;" direction="ltr">socks5 tunnel from student-n</text><text x="0" y="43" font-family="Virgil, Segoe UI Emoji" font-size="20px" fill="#d9480f" text-anchor="start" style="white-space: pre;" direction="ltr">laptop to student-n director through</text><text x="0" y="68" font-family="Virgil, Segoe UI Emoji" font-size="20px" fill="#d9480f" text-anchor="start" style="white-space: pre;" direction="ltr">the existing bastion tunnel, tunnel</text><text x="0" y="93" font-family="Virgil, Segoe UI Emoji" font-size="20px" fill="#d9480f" text-anchor="start" style="white-space: pre;" direction="ltr">exposed on socket 12346</text></g><g stroke-linecap="round"><g transform="translate(1540.970264204408 745.6251967184186) rotate(0 38.098629277175746 -0.4505793627351409)"><path d="M0.5 -0.92 C13.2 -0.92, 62.82 -0.18, 75.7 0.02" stroke="#5c940d" stroke-width="2.5" fill="none" stroke-dasharray="8 10"></path></g><g transform="translate(1540.970264204408 745.6251967184186) rotate(0 38.098629277175746 -0.4505793627351409)"><path d="M45.82 8.3 C54.72 9.03, 62.52 3.88, 74.38 0.95" stroke="#5c940d" stroke-width="2.5" fill="none"></path></g><g transform="translate(1540.970264204408 745.6251967184186) rotate(0 38.098629277175746 -0.4505793627351409)"><path d="M46.13 -12.22 C54.95 -6.18, 62.67 -6.02, 74.38 0.95" stroke="#5c940d" stroke-width="2.5" fill="none"></path></g></g><g transform="translate(1629.059728884943 734.663321211877) rotate(0 184 12.5)"><text x="0" y="18" font-family="Virgil, Segoe UI Emoji" font-size="20px" fill="#5c940d" text-anchor="start" style="white-space: pre;" direction="ltr">inbound security group rules (firewall)</text></g><g stroke-linecap="round"><g transform="translate(1541.2714388991099 799.5072002676831) rotate(0 38.17480797668702 0.09879826270042713)"><path d="M-0.42 0.08 C12.55 0.12, 63.77 0.05, 76.77 0.12" stroke="#364fc7" stroke-width="2.5" fill="none" stroke-dasharray="8 10"></path></g><g transform="translate(1541.2714388991099 799.5072002676831) rotate(0 38.17480797668702 0.09879826270042713)"><path d="M48.69 10.15 C54.78 9.4, 61.44 4.38, 77.12 -0.64" stroke="#364fc7" stroke-width="2.5" fill="none"></path></g><g transform="translate(1541.2714388991099 799.5072002676831) rotate(0 38.17480797668702 0.09879826270042713)"><path d="M48.73 -10.37 C54.79 -6.74, 61.43 -7.38, 77.12 -0.64" stroke="#364fc7" stroke-width="2.5" fill="none"></path></g></g><g transform="translate(1629.7845592303988 789.183947609066) rotate(0 194 12.5)"><text x="0" y="18" font-family="Virgil, Segoe UI Emoji" font-size="20px" fill="#364fc7" text-anchor="start" style="white-space: pre;" direction="ltr">outbound security group rules (firewall)</text></g><g transform="translate(1746.5710500747919 437.84496256193154) rotate(0 15.5 12.5)"><text x="0" y="18" font-family="Virgil, Segoe UI Emoji" font-size="20px" fill="#000000" text-anchor="start" style="white-space: pre;" direction="ltr">key</text></g><g stroke-linecap="round" transform="translate(1198.7580460201739 667.4120704739743) rotate(0 107.5 125.50000000000006)"><path d="M0.22 -1.7 C64.03 -0.44, 126.29 -0.36, 214.93 -0.95 M-0.78 -0.48 C52.81 -0.5, 104.29 -0.39, 215.67 -0.12 M216.39 1.53 C213.05 54.91, 214.64 105.96, 214.32 251.8 M214.41 0.49 C215.8 61.54, 216.37 122.31, 214.69 251.33 M214.07 251.34 C159.37 248.73, 103.91 249.67, 0.14 251.11 M214.62 251.06 C129.54 251.69, 43.91 250.56, 0.26 250.68 M-0.08 250.27 C1.19 184.64, 0.34 116.97, -0.96 -0.82 M-0.51 250.23 C0.72 174.28, -0.57 99.02, -0.14 0.29" stroke="#000000" stroke-width="2" fill="none"></path></g><g transform="translate(1203.7580460201739 672.4120704739743) rotate(0 102.5 12.5)"><text x="102.5" y="18" font-family="Virgil, Segoe UI Emoji" font-size="20px" fill="#000000" text-anchor="middle" style="white-space: pre;" direction="ltr">10.244.0.0/20</text></g><g stroke-opacity="0.8" fill-opacity="0.8" stroke-linecap="round" transform="translate(1210.3318840180277 711.803937797549) rotate(0 94.5 65)"><path d="M0 0 C0 0, 0 0, 0 0 M0 0 C0 0, 0 0, 0 0 M1.27 13.09 C3.22 7.38, 7.58 3.67, 11.91 -0.74 M-0.27 12.07 C3.54 8.22, 7.44 3.27, 10.26 -0.21 M-1.14 25.4 C7.06 17.26, 10.54 10.96, 22.73 -0.57 M0.31 23.75 C6.48 18.44, 10.01 12.55, 20.76 -0.38 M-0.28 36.47 C12.67 21.4, 22.96 8.88, 32.67 0.81 M0.41 37.74 C9.23 28.39, 15.91 17.47, 32.87 0.65 M-1.87 49.21 C15.13 29.89, 33.87 11.49, 43.8 0.46 M0.24 48.21 C12.94 32.14, 28.01 14.89, 42.06 0.61 M-0.59 59.11 C12.11 44.83, 27.59 26.8, 53.2 1.16 M0.22 61.32 C14.48 44.7, 27.99 29.81, 52.48 0 M-1.63 73 C23.42 43.27, 48.44 14.87, 62.88 -1.28 M-0.73 73.92 C14.22 56.79, 26.89 43.31, 63.53 -1.15 M0.26 85.17 C19.97 63.71, 34.81 45.28, 75.32 -0.67 M0.78 85.17 C28.24 53.34, 56.7 20.33, 73.64 0.5 M-0.36 99.61 C32.81 61.92, 63.49 26.85, 83.05 -0.92 M-0.22 97.02 C21.02 74.73, 41.6 52.27, 84.91 0.36 M0.58 110.39 C24.43 84.18, 44.57 56.54, 96.19 1.34 M0.2 109.99 C34.58 71.73, 68.22 34.05, 94.91 -0.31 M0.3 123.67 C26.8 89.16, 55.68 56.7, 108.05 0.24 M0.71 121.48 C40.76 76.14, 80.45 31.5, 105.33 0.44 M3.28 131.82 C42.42 81.15, 87.05 34.01, 117.99 -1.17 M1.98 131.27 C43.06 84, 83.93 38.88, 117.1 -0.31 M10.84 132.61 C52.32 88.91, 90.24 44.02, 127.63 1.51 M12.4 131.02 C41.91 98.23, 71.58 64.19, 127.69 -0.5 M23.01 131.27 C53.11 97.38, 83.63 63.24, 136.49 0 M23.12 131.72 C56.26 91.22, 90.37 53.19, 136.93 1.18 M33.7 130.79 C68.05 90.64, 106.18 51.89, 150.15 1.75 M33.38 132.29 C68.64 94.08, 99.96 56.95, 148.3 1.03 M43.7 133.14 C76.84 95.53, 110.39 57.41, 159.17 0.16 M44.67 132.15 C83.97 88.97, 120.9 44.73, 158.06 0.93 M56.33 132.72 C82.36 99.45, 111.76 65.99, 168.67 1.97 M54.5 131.05 C97.63 82.93, 141.51 34.21, 169.9 1.08 M66.93 131.78 C105.69 85.55, 143.75 41.75, 181.84 0.73 M65.08 131.81 C101.24 88.23, 137.67 46.59, 180.73 -0.21 M78.42 129.91 C102.29 100.8, 131.51 70.33, 188.9 0.99 M77.06 132.11 C118.61 79.49, 164.54 29.33, 190.67 1.04 M86.93 131.41 C119.39 95.01, 150.36 57.16, 190.77 12.78 M86.25 131.27 C126.43 85.92, 166.95 39.68, 190.95 13.27 M96.63 131.51 C126.96 94.89, 160.17 59.48, 192.18 23.37 M96.64 132.81 C124.94 101.2, 153.68 69.04, 190.17 24.51 M107.95 132.81 C137.75 96.96, 171.03 58.71, 191.73 36.65 M107.83 132.19 C136.07 97.02, 166.73 63.21, 190.47 38.11 M117.23 131.22 C131.43 117.09, 148.46 98.61, 191.88 50.25 M118.7 131.11 C135.06 113.01, 152.99 92.21, 190.75 49.16 M128.87 132.38 C145.95 107.78, 167.97 86.02, 190.62 61.46 M128.86 131.29 C149.04 110.32, 169.84 87.12, 190.44 62.83 M138.22 133.86 C155.83 114.6, 167.5 96.3, 189.64 75.71 M139.65 131.01 C152.6 116.61, 165.62 100.2, 190.83 74.1 M149.22 132.6 C165.8 115.95, 178.84 98.57, 189.22 84.72 M150.86 131.88 C160.34 118.86, 173.62 105.1, 190.14 86.32 M161.88 130.33 C169.14 123.52, 177.03 115.15, 189.15 98.72 M160.47 132.63 C171.19 119.68, 181.28 108.37, 189.6 98.77 M169.89 133.04 C180.42 125.3, 187.78 114.56, 190.92 108.84 M171.39 131.86 C176.4 125.09, 181.15 119.92, 189.77 111.35 M183.37 132.18 C184.4 128.97, 188.15 125.86, 190.83 122.97 M182.73 131.87 C183.69 130.03, 186.28 127.25, 189.61 122.29" stroke="#228be6" stroke-width="1" fill="none"></path><path d="M0.45 0.42 C67.5 1.5, 133.74 1.54, 188.03 0.71 M0.66 -0.28 C65.54 0.49, 133.92 -0.85, 188.63 -0.98 M187.94 0.26 C189.69 39.97, 189.98 78.38, 188.72 130.86 M189.99 -0.39 C188.12 30.93, 188.62 60.72, 189.51 130.48 M189.93 128.59 C150.84 131, 111.93 131.21, -1.21 128.81 M188.58 129.95 C127.47 128.84, 68.19 129.21, 0.22 130 M0.07 128.02 C1.27 80.71, -0.15 26.62, -1.36 1.6 M-0.22 129.6 C0.35 83.35, 1.29 37.05, -0.68 0.37" stroke="#000000" stroke-width="2" fill="none"></path></g><g stroke-opacity="0.8" fill-opacity="0.8" transform="translate(1215.3318840180277 764.303937797549) rotate(0 89.5 12.5)"><text x="89.5" y="18" font-family="Virgil, Segoe UI Emoji" font-size="20px" fill="#000000" text-anchor="middle" style="white-space: pre;" direction="ltr">Cloud Foundry</text></g><g stroke-opacity="0.7" fill-opacity="0.7" stroke-linecap="round" transform="translate(1211.8841207784576 852.3138325718567) rotate(0 94.5 28.5)"><path d="M0 0 C0 0, 0 0, 0 0 M0 0 C0 0, 0 0, 0 0 M-0.55 11.03 C4.89 8.76, 7.28 5.28, 10.98 -0.89 M-0.64 11.81 C4.78 7.41, 8.37 3.47, 10.12 0.08 M0.61 22.46 C6.44 16, 14.83 6.02, 20.87 0.46 M-0.48 23.63 C5.91 19.18, 10.28 13.81, 22.24 -0.13 M1.6 38.64 C11.33 21.93, 22.06 9.04, 33.71 -0.82 M-1.25 36.71 C10.71 23.81, 20.59 12.38, 32.1 0.56 M0.51 49.79 C13.64 33.61, 25.97 18.48, 41.32 -0.42 M-0.21 47.97 C16.92 30.12, 33.22 9.62, 42.92 -0.52 M0.38 59.17 C14.71 45.08, 27.36 29.48, 53.15 1.06 M2.67 58.71 C19.97 37.82, 38.72 17.2, 53.2 0.75 M13.75 60.34 C30.23 42.93, 43.41 24.13, 61.85 -0.59 M12.57 58.24 C23.95 43.42, 37.31 29.59, 64.36 0 M23.76 58.17 C40.63 39.78, 57.62 19.56, 74.68 -1.59 M23.25 58.04 C37.01 43.51, 49.19 26.79, 73.56 0.13 M35.18 57.17 C48.57 42.69, 64.81 22.88, 86.94 -0.6 M33.47 58.23 C49 41.41, 62.79 23.16, 85.4 -0.03 M43.32 56.89 C58.29 42.04, 75.11 26.35, 97.44 0.79 M44.21 58.18 C56.02 43.8, 69.63 29.12, 94.79 0.06 M53.52 59.49 C64.23 46.57, 78.92 33.33, 105.9 -0.32 M55.51 58.17 C74.3 38.28, 92.24 15.93, 106.67 -0.68 M66.5 59.29 C78.93 46.06, 89.17 31.02, 115.77 0.14 M66.15 58.14 C83.52 39.07, 98.74 21.13, 116.17 -0.42 M77.88 58.37 C87.87 44.7, 101.16 29.92, 126.23 -0.23 M76.55 59.41 C89.06 43.13, 102.78 29.49, 127 1.2 M87.57 60.05 C104.78 37.38, 123.19 18.81, 135.79 1.79 M86.47 59.38 C101.1 42.11, 117.27 25.02, 138.28 -0.6 M99.21 56.54 C111.85 43.8, 122 28.72, 146.24 1.59 M97.81 59.24 C111.13 43.34, 125.32 26.65, 148.98 -0.11 M109.65 58.45 C127.36 36.58, 146.7 12.66, 157.53 -0.98 M108.41 58.73 C124.48 39, 141.47 19.65, 158.04 -0.6 M119.67 59.14 C137.46 35.25, 156.96 11.42, 169.12 -0.01 M118.15 58.59 C133.86 41.49, 148.66 24.27, 170.1 0.37 M130.07 57.23 C141.45 42.8, 157.64 27.2, 179.5 0 M129.38 58.25 C148.87 35.07, 167.98 12.13, 180.37 0.65 M141.19 60.7 C149.43 45.37, 160.97 36.27, 190.9 2.46 M139.74 58.09 C155.97 38.99, 172.52 19.79, 189.67 1.02 M148.94 57.47 C162.42 46.92, 172.74 32.54, 188.91 11.36 M150.59 59.12 C161.54 46.55, 173.05 32.72, 189.37 11.93 M159.61 59.67 C173.08 45.42, 183.92 32.08, 191.43 25.05 M161.11 59.51 C170.79 46.43, 182.13 33.99, 190.77 24.55 M171.27 57.22 C177.22 52.16, 184.68 45.29, 190.61 37.83 M172.1 59.23 C177.52 51.99, 184.25 45.89, 190.27 38.41 M181.56 57.99 C184.37 55.99, 187.3 54.19, 190.42 50.62 M182.47 59.44 C184.15 56.65, 185.21 54.42, 189.79 49.81" stroke="#fa5252" stroke-width="1" fill="none"></path><path d="M0.3 0.08 C40.94 -1.54, 83.78 0.81, 189.56 0.42 M0.32 -0.13 C73.2 1.19, 147.51 2.22, 188.62 -0.64 M187.46 -1.69 C189.15 15.15, 189.55 27.77, 189.1 58.76 M189.65 -0.99 C188.68 22.25, 189.19 43.35, 189.15 57.14 M188.99 56.6 C136.36 54.95, 82.92 57.39, -0.15 58.7 M188.85 56.16 C139.34 55.28, 89.14 56.06, 0.34 57.29 M-0.63 56.38 C-1.83 41.02, -2.03 22.97, -1.6 -0.05 M0.67 56.87 C0.74 42.05, 0.45 25.14, -0.46 0.83" stroke="#000000" stroke-width="2" fill="none"></path></g><g stroke-opacity="0.7" fill-opacity="0.7" transform="translate(1216.8841207784576 868.3138325718567) rotate(0 89.5 12.5)"><text x="89.5" y="18" font-family="Virgil, Segoe UI Emoji" font-size="20px" fill="#000000" text-anchor="middle" style="white-space: pre;" direction="ltr">CF Redis</text></g><g stroke-linecap="round" transform="translate(718.076045014096 668.6585315653148) rotate(0 107.5 125.49999999999994)"><path d="M-0.92 -0.5 C69.75 1.17, 136.21 1.55, 216.59 0.45 M0.12 -0.76 C67.88 0.77, 137.34 1.89, 214.17 0.43 M214.85 -1.24 C217.5 84.16, 217.43 167.44, 215.59 251.97 M214.86 -0.3 C214.98 81.16, 215.17 162.5, 214.79 250.94 M216.09 251.65 C143.62 248.73, 70.14 248.22, -0.33 252.15 M215.4 251.5 C148.12 251.02, 79.3 250.42, 0.66 250.94 M0.98 250.58 C1.97 154.34, 2.11 59.54, 0.86 1.55 M-0.07 250.8 C0 153.17, -0.3 56.13, 0.26 0.04" stroke="#000000" stroke-width="2" fill="none"></path></g><g transform="translate(723.076045014096 673.6585315653148) rotate(0 102.5 12.5)"><text x="102.5" y="18" font-family="Virgil, Segoe UI Emoji" font-size="20px" fill="#000000" text-anchor="middle" style="white-space: pre;" direction="ltr">10.244.0.0/20</text></g><g stroke-opacity="0.8" fill-opacity="0.8" stroke-linecap="round" transform="translate(729.6498830119499 713.0503988888896) rotate(0 94.5 65)"><path d="M0 0 C0 0, 0 0, 0 0 M0 0 C0 0, 0 0, 0 0 M1.55 12.38 C3.17 10.41, 3.6 5.52, 10.41 1.13 M-0.34 11.42 C4.07 7.3, 8.26 3.12, 10.78 -0.48 M-0.58 25.11 C7.66 17.04, 12.15 10.25, 21.95 -0.46 M0.07 25.05 C6.39 16.21, 13.57 8.63, 21.79 0.43 M-0.15 35.76 C5.76 27.41, 15.1 22.14, 33.03 0.4 M-0.81 36.76 C9.14 24.85, 19.23 13.45, 32.78 0.5 M-0.46 50.81 C9.88 37.39, 22.13 24.74, 40.72 -1.85 M0.2 48.72 C16.45 30.04, 34.4 10.37, 43.36 -0.05 M0.51 61.88 C10.75 47.73, 20.18 35.26, 52.74 -2.03 M-0.38 61.29 C14.66 44.53, 30.61 25.71, 53.33 0.33 M-1.53 72.38 C23.01 44.88, 45.66 20.9, 62.77 -0.35 M-0.37 72.5 C24.19 43.66, 49.34 17.11, 63.52 0.11 M1.63 85.85 C18.35 62.1, 37.26 42.19, 75.93 -0.87 M0.16 84.6 C28.98 51.9, 58.4 19.43, 73.55 -0.58 M-0.54 96.21 C23.52 71.8, 42.06 49.95, 84.2 0.1 M0.05 97.48 C29.29 62.47, 61.11 27.82, 84.63 -0.24 M0.78 108.38 C29.81 73.84, 59.11 40.63, 95.86 -0.47 M0.45 109.38 C27.84 79.12, 54.72 46.81, 95.34 -1.29 M-0.77 120.31 C37.02 83, 70.12 41.37, 106.96 -0.76 M0.63 122.15 C37.05 79.55, 75.3 35.92, 106.4 -0.33 M1.32 133.3 C36.95 88.94, 74.86 47.39, 118.02 0.22 M1.41 131.67 C39.28 87.18, 78.33 42.88, 115.79 1.3 M13.83 131.27 C51.5 86.93, 91.32 39.82, 128.2 -0.81 M12.85 132.33 C40.8 100.64, 68.5 69.57, 126.19 0.28 M23.57 131 C55.62 95.77, 90.96 58.57, 136.69 -1.34 M23.41 131.37 C58.78 93.31, 90.62 56.19, 136.78 0.48 M34.43 132.46 C69.17 93.23, 100.29 52.92, 148.86 -0.51 M33.29 132.42 C57.64 104.21, 83.11 74.96, 148.68 -0.29 M46.28 132.27 C88.65 78.29, 132.92 30.29, 157.01 -0.78 M44.72 131.05 C88.45 78.88, 132.93 28.83, 158.05 1.19 M56.43 133.19 C91.84 88.17, 130.34 47.17, 167.78 -0.4 M55.74 131.48 C94.31 88.45, 131.53 46.23, 168.89 -0.75 M67.05 131.7 C105.87 82.48, 148.77 37.2, 179.64 0.18 M64.95 132.3 C95.26 97.62, 126.24 63.66, 180.81 0.07 M74.62 131.59 C118.66 81.55, 159.2 32.76, 189.63 2.61 M77.36 131.2 C117.76 82.09, 161.34 31.95, 189.18 0.12 M85.34 131.5 C127.57 83.98, 168.7 36.34, 190.94 13.28 M87.07 130.65 C110.46 102.75, 135.77 75.61, 190.98 11.98 M95.96 131.24 C125.64 94.98, 156.74 58.5, 191.9 23.18 M96.49 131.44 C132.7 88.82, 169.72 46.77, 191.2 24.33 M107.78 132.32 C131.09 103.86, 157.21 74.8, 187.89 39.38 M107.68 131.3 C126.15 110.54, 143.59 89.2, 189.07 38.65 M120.23 132.08 C143.82 102.57, 167.57 76.16, 189.28 50.32 M118.25 132.22 C144.24 102.58, 169.62 72.7, 189.31 50.56 M128.83 132.18 C150.27 107.95, 172.96 83.56, 190.85 59.87 M128.72 131.11 C143.46 114.18, 159.11 97.93, 189.96 61.13 M138.08 132.98 C149.86 118.84, 165.71 102.54, 189.94 75.86 M139.64 131.26 C154.9 114.91, 167.89 99.1, 189.82 73.52 M148.82 133.04 C158.3 122.5, 167.32 112.34, 191.18 84.42 M150.44 132.11 C164.04 117.17, 176.05 102.38, 189.53 86.49 M159.68 130.73 C172.84 120.93, 182.24 108.84, 189.28 98.28 M161.13 131.93 C170.76 121.46, 179.77 110.29, 189.73 98.86 M170.57 131.75 C174.16 126.43, 179.73 123.1, 189.1 111.33 M171.12 131.53 C177.31 126.36, 182.93 119.8, 189.47 111.22 M183.29 131.19 C184.68 128.98, 186.83 128.54, 189.51 122.74 M182.68 131.36 C185.16 128.72, 187.65 125.93, 190.63 122.42" stroke="#228be6" stroke-width="1" fill="none"></path><path d="M1.6 -0.6 C39.04 0.37, 81 1.05, 189.38 0.99 M-0.75 -0.8 C42.21 2.12, 82.85 2.13, 189.31 0.84 M189.97 1.32 C189.75 51.62, 189.6 101.29, 189.47 130.46 M188.41 -0.05 C188.42 27.24, 188.53 54.14, 189.34 129.4 M189.58 129.01 C145.17 129.13, 103.47 132.02, 0.28 130.89 M189.71 129.69 C128.55 130.09, 70.42 131.02, 0.82 129.42 M0.96 128.89 C0.35 86.27, 0.28 44.29, 1.75 0.67 M0.83 129.3 C0.58 83.08, 0.43 37.06, 0.81 -0.07" stroke="#000000" stroke-width="2" fill="none"></path></g><g stroke-opacity="0.8" fill-opacity="0.8" transform="translate(734.6498830119499 765.5503988888895) rotate(0 89.5 12.5)"><text x="89.5" y="18" font-family="Virgil, Segoe UI Emoji" font-size="20px" fill="#000000" text-anchor="middle" style="white-space: pre;" direction="ltr">Cloud Foundry</text></g><g stroke-opacity="0.7" fill-opacity="0.7" stroke-linecap="round" transform="translate(731.2021197723798 853.5602936631972) rotate(0 94.5 28.5)"><path d="M0 0 C0 0, 0 0, 0 0 M0 0 C0 0, 0 0, 0 0 M0.81 13.12 C1.57 7.71, 5.43 6.71, 12.16 0.82 M-0.02 12.04 C2.84 9.55, 5.87 5.33, 10.46 0.72 M2.04 23.95 C8.8 14.54, 17.13 5.09, 21.83 -1.23 M-0.64 24.3 C7.58 15.37, 16.62 6.23, 20.32 -0.5 M-1.01 34.98 C11.12 26.67, 19.69 15.9, 32.12 -1.81 M-1.19 36.18 C6.82 27.44, 16.3 19.74, 31.32 -0.57 M-0.69 49.56 C16.73 30.65, 29.03 11.3, 44.49 -1.67 M-0.92 49.38 C10.63 36.97, 22.05 24.37, 41.58 0.81 M2.36 58.41 C19.55 36.61, 39.1 13.26, 52.85 -0.09 M1.51 59.5 C16.08 42.36, 29.45 27.9, 53.84 0.08 M12.16 57.47 C26.27 44.04, 41.02 25.4, 65.43 -1.03 M12.02 57.71 C31.69 38.07, 49.73 16.58, 63.22 -1.18 M22.41 56.82 C40.61 37.07, 59.87 16.94, 76.19 -1.6 M22.55 58.88 C40.25 40.19, 56.53 19.3, 73.95 -0.62 M35.58 57.08 C45.42 45.77, 58.88 29.74, 86.27 1.51 M33.46 58.15 C46.49 45.1, 57.69 30.73, 85.23 -0.35 M43.85 56.79 C53.37 46.41, 66.41 33.49, 95.43 -0.44 M44.81 59.4 C58.47 42.16, 73.21 24.05, 95.92 -1.23 M56.47 59.96 C73.62 37.36, 92.74 16.27, 107.48 1.4 M55.09 59.02 C65.32 47.09, 75.83 34.3, 106.41 -0.17 M65.28 57.65 C87.58 33.92, 107.14 12.6, 117.06 1.68 M65.05 58.63 C81.39 40.94, 96.9 23.53, 116.7 0.37 M76.08 59.52 C95.51 35.59, 115.35 13.71, 125.71 -0.49 M76.45 58.75 C90.67 42.78, 103.67 25.77, 126.78 0.07 M86.13 59.39 C99.95 47.04, 108.72 30.92, 137.38 -1.55 M87.86 57.59 C97.65 45.94, 108.87 32.7, 137.53 0.97 M99.53 58.83 C109.43 42.57, 124.32 27.36, 146.44 1.12 M97.42 58.7 C112.31 41.68, 125.42 26.53, 149.09 1.22 M108.69 56.67 C122.81 42.63, 136.34 22.27, 160.55 1.48 M108.64 57.73 C128.97 35.66, 147.8 13.18, 159.02 -0.48 M117.11 57.37 C130.97 43.89, 141.22 29.33, 170.01 -1.6 M118.53 58.89 C131.68 44.06, 145.02 26.42, 170.01 -0.16 M127.43 57.54 C146.24 39.54, 162.51 19.44, 179.25 -0.74 M127.98 58.65 C142.33 44.04, 155.14 29.82, 180.76 1.16 M140.93 58.02 C157.86 37, 175.36 19.64, 191.6 2.21 M138.63 60 C158.06 37.22, 176.78 13.96, 191.01 0.91 M149.62 58.45 C161.44 44.99, 173.81 33.46, 188.84 12.8 M149.26 58.13 C162.89 44.78, 175.77 29.82, 190.51 13.78 M158.98 57.57 C167.64 47.27, 179.7 37.57, 192.22 25.91 M159.92 58.91 C171.71 46.33, 184.84 32.11, 190.35 24.71 M169.42 58.79 C174.48 53.94, 177.5 51.32, 188.34 39.17 M171.71 59.62 C177.6 51.74, 185.05 43.44, 190.19 38.59 M183.05 58.18 C185.26 56.09, 186.94 53, 190.61 48.88 M181.76 58.74 C183.7 56.1, 185.88 54.48, 190.27 50.31" stroke="#fa5252" stroke-width="1" fill="none"></path><path d="M-0.56 -0.17 C53.07 1.08, 102.89 1.57, 187.43 0.28 M0.32 0.48 C39.3 2.01, 80.8 2.36, 189.85 -0.09 M189.87 1.57 C189.99 13.94, 189.75 25.96, 187.17 56.67 M188.64 0.13 C188.41 14.93, 189 29.41, 188.25 57.63 M187.74 55.43 C124.92 57.38, 61.87 56.95, 0.31 57.91 M188.21 56 C122.15 56.34, 54.62 55.83, 0.37 57.6 M1.13 57.08 C0.79 43.27, 1.48 26.42, 1.15 -0.17 M0.47 56.58 C-0.15 41.38, 0.34 25.59, -0.84 -0.14" stroke="#000000" stroke-width="2" fill="none"></path></g><g stroke-opacity="0.7" fill-opacity="0.7" transform="translate(736.2021197723798 869.5602936631972) rotate(0 89.5 12.5)"><text x="89.5" y="18" font-family="Virgil, Segoe UI Emoji" font-size="20px" fill="#000000" text-anchor="middle" style="white-space: pre;" direction="ltr">CF Redis</text></g><g stroke-linecap="round" transform="translate(431.6876345460686 665.91324366444) rotate(0 107.5 125.5)"><path d="M-0.55 0.45 C53.27 -1.83, 103.89 -0.74, 215.27 -0.8 M-0.52 0.66 C60.56 1.79, 119.7 0.97, 215.06 -0.07 M215.66 -1.61 C214.77 88.54, 214.26 174.69, 213.49 250.02 M214.94 -0.59 C213.78 61.47, 214 120.96, 215.4 250.28 M214.8 252.73 C139.21 250.06, 63.66 250.08, -1.29 252.44 M214.69 250.68 C162.63 252.01, 111.21 250.65, 0.47 250.74 M0.71 249.77 C0.72 165.59, 1.89 83.27, 0.24 1.53 M-0.63 251.46 C-0.75 180.2, -1.56 109.47, -0.49 0.8" stroke="#000000" stroke-width="2" fill="none"></path></g><g transform="translate(436.6876345460686 670.91324366444) rotate(0 102.5 12.5)"><text x="102.5" y="18" font-family="Virgil, Segoe UI Emoji" font-size="20px" fill="#000000" text-anchor="middle" style="white-space: pre;" direction="ltr">10.244.0.0/20</text></g><g stroke-opacity="0.8" fill-opacity="0.8" stroke-linecap="round" transform="translate(443.2614725439224 710.3051109880146) rotate(0 94.5 65)"><path d="M0 0 C0 0, 0 0, 0 0 M0 0 C0 0, 0 0, 0 0 M0.04 11.66 C5.5 6.89, 7.33 3.61, 11.99 0.78 M-0.29 12.09 C3.72 8.49, 7.11 3.89, 10.19 0.48 M0.55 22.37 C8.33 16.23, 15.29 6.45, 20.21 1.43 M0.64 24.54 C6.18 17.97, 10.33 10.83, 20.75 0.47 M-0.41 38.25 C7.56 26.99, 18.14 16.41, 33.76 -0.85 M-1.04 36.6 C11.52 23.24, 25.88 7.29, 32.68 -0.98 M1.19 49.47 C13.02 36.67, 23.83 20.74, 43.45 0.54 M0.11 48.11 C16.36 30.98, 32.43 11.53, 41.87 -1.12 M-0.33 60.88 C13.7 49.16, 25.5 33.54, 54.91 0.4 M-0.45 61.18 C16.16 42.82, 31.3 25.19, 53.25 0.17 M-0.31 74.54 C22.54 48.78, 39.49 24.92, 64.4 1.51 M1.06 73.95 C23.99 45.02, 49.56 15.98, 63.45 0.28 M-0.97 85.97 C21.02 61.11, 40.37 41.79, 76.24 0.19 M0.91 85.09 C27.97 52.9, 55.74 19.65, 74.59 0.56 M1.34 98.46 C29.93 67.45, 55.26 33.03, 86.21 -2.13 M-1.07 97.18 C20.09 73.37, 39.41 49, 85.08 0.04 M-1.74 111.67 C33.51 71.59, 66.5 31.84, 95.06 -1.37 M-0.05 109.52 C24.76 79.88, 50.44 52.26, 95.35 0.16 M-1.12 123.69 C24.59 90.42, 51.37 59.42, 107.87 0.81 M-0.38 121.29 C40.18 73.97, 80.4 27.14, 106.7 0.46 M1.77 133.3 C36.91 92.61, 69.28 58.1, 114.88 -0.73 M1.81 132.05 C42.99 85.82, 83.17 41.61, 116.35 0.1 M14.41 131.3 C45.36 97.2, 76.99 61.22, 125.54 1.96 M12.34 132.14 C55.15 82.95, 98.06 33.05, 126.92 0.5 M24.91 130.7 C55.73 95.53, 84.91 59.83, 138 0.01 M24.09 131.09 C62.9 85.78, 102.23 40.59, 138.21 0.65 M35.11 133.12 C68.67 90.36, 107.17 49.59, 149.2 0.3 M34.39 131.12 C59.55 102.07, 86.07 70.41, 148.64 -0.22 M43.44 130.15 C85.51 84.12, 124.94 41.69, 159.61 -0.29 M45.29 130.71 C82.69 89.41, 122.1 45.12, 158.38 0.81 M54.42 132.93 C95.75 87.31, 132.83 47.01, 168.72 0.75 M55.32 131.31 C90.14 90.49, 123.94 52, 170.12 0.11 M66.01 131.7 C92.43 103.77, 113.74 78.23, 180.41 1.09 M66.28 131.04 C101.69 91.72, 136.8 50.66, 180.84 0.2 M75.15 133.35 C118.16 79.42, 165.22 30.08, 189.8 1.89 M77.02 131.43 C118.84 82.33, 160.91 35.08, 189.96 0.22 M89.11 133.02 C119.46 90.18, 155.05 50.84, 188.76 14.4 M86.23 131.11 C114.74 101.71, 139.66 73.39, 189.21 13.71 M98.31 132.4 C115.79 108.96, 139.41 85.58, 188.95 23.84 M97.55 131.34 C132.59 92.27, 167.98 51.32, 191.03 24.65 M106.39 132.24 C132.67 101.71, 157.06 73.2, 189.7 36.93 M107 132.64 C125.33 111.46, 142.79 92.26, 190.77 38.09 M119.7 130.5 C135.15 111.78, 155.44 90.12, 189.92 51.09 M118.79 132.09 C140.05 106.49, 163.35 81.17, 189.94 49.58 M129.35 130.85 C146.7 111.65, 162.67 93.42, 189.6 60.57 M128.74 132 C145.23 112.92, 163.66 91.67, 190.1 62.4 M140.02 133 C160.46 107.26, 179.97 85.77, 191.9 72.93 M139.44 131.41 C154.34 115.31, 167.63 98.46, 190.23 74.25 M149.35 132.27 C159.27 118.21, 171.34 105.93, 191.87 87.42 M150.97 131.76 C165.64 114.51, 182.12 95.41, 189.83 86.73 M161.44 133.14 C167.31 124.78, 177.38 113.98, 191.3 99.29 M160.73 131.67 C168.15 123.26, 174.64 114.16, 189.13 97.82 M170.24 132.82 C177.3 124.24, 185.33 116.78, 190.75 110.29 M172.18 132.63 C176.44 125.73, 181.95 119.18, 189.39 111.58 M181.47 131.23 C183.08 128.89, 185.06 127.57, 189.44 124 M182.48 131.76 C184.87 128.41, 187.45 125.37, 189.93 122.55" stroke="#228be6" stroke-width="1" fill="none"></path><path d="M1.18 -1.54 C60.93 -0.78, 123.52 -1.4, 188.58 -1.47 M0.61 0.84 C45.72 -1.52, 92.31 -1.51, 189.49 0.26 M188.06 1.16 C187.95 50.68, 187.67 101.41, 187.84 129.23 M188.46 0.82 C188.64 50.33, 189.39 101.34, 189.51 130.81 M188.7 129.95 C141.01 131.84, 92.15 133.52, -1.19 128.83 M188.24 130.82 C128.9 128.57, 70.18 129.01, 0.35 129.73 M0.2 128.27 C1.06 85.73, -0.27 42.72, -0.38 1.06 M0.41 129.65 C0.44 99.52, 0.41 71.25, 0.08 0.76" stroke="#000000" stroke-width="2" fill="none"></path></g><g stroke-opacity="0.8" fill-opacity="0.8" transform="translate(448.2614725439224 762.8051109880146) rotate(0 89.5 12.5)"><text x="89.5" y="18" font-family="Virgil, Segoe UI Emoji" font-size="20px" fill="#000000" text-anchor="middle" style="white-space: pre;" direction="ltr">Cloud Foundry</text></g><g stroke-opacity="0.7" fill-opacity="0.7" stroke-linecap="round" transform="translate(444.8137093043523 850.8150057623222) rotate(0 94.5 28.5)"><path d="M0 0 C0 0, 0 0, 0 0 M0 0 C0 0, 0 0, 0 0 M1.59 11.37 C3 8.6, 8.39 4.96, 11.45 -0.75 M-0.02 12.78 C3.37 8.24, 7.01 4.2, 11.39 -0.39 M-0.08 25.76 C4.73 18.59, 11.55 11.53, 20.41 1.87 M1.01 24.05 C4.6 17.35, 9.53 13.18, 21.21 -0.34 M-2.03 37.97 C9.47 26.15, 22.4 12.04, 33.83 0.13 M-1.2 37.64 C7.51 28.62, 14.46 20.41, 31.74 0.39 M1.12 50.9 C14.98 30.97, 31.5 13.8, 44.16 1.23 M0.41 49.83 C13.95 33.5, 26.86 16.36, 41.81 -1 M2.95 60.66 C15.54 44.28, 29.59 29.66, 53.14 -0.33 M2.17 58.93 C17.71 41.04, 34.42 22.03, 53.37 -0.49 M14.26 57.92 C25.28 40.64, 42.26 26.73, 65.43 -1.39 M11.68 59.16 C31.65 35.45, 50.28 14.31, 63.39 -0.7 M24.21 56.89 C39.49 42.45, 55.23 24.54, 76.06 1.41 M23.27 58.73 C35.08 43.4, 48.58 30.02, 74.68 -1.08 M35.35 59.67 C44.16 43.56, 58.19 29.4, 83.87 1.27 M34.36 58.44 C52.62 36.18, 72.49 15.42, 85.66 0.7 M44.52 59.68 C56.1 44.64, 69.96 27.6, 94.93 0.69 M44.74 58.13 C63.76 38.32, 81.26 16.51, 95.16 0.58 M54.31 57.18 C68.84 40.19, 84.85 27.23, 107.99 1.14 M55.36 58.49 C74.82 36.13, 95.48 13.96, 106.18 -1.26 M66.49 56.86 C79.78 44, 91.79 25.54, 117.25 -0.72 M66.07 57.72 C78.59 45.37, 89.98 30.46, 116.01 0.12 M77.44 59.35 C90.06 44.79, 99.91 30.98, 128.46 1.57 M76.46 59.27 C91.23 41.78, 106.14 24.44, 126.66 0.13 M87.6 58.87 C101.34 40.65, 120.06 20.38, 138.36 0.33 M87.58 58.55 C107.7 35.25, 127.64 12.6, 137.7 0.85 M96.88 58.71 C113.93 41.85, 128.4 23.47, 146.8 0.29 M96.76 58.64 C108.95 43.45, 122.56 29.77, 148.64 0.77 M110.15 56.84 C126.78 41.4, 142.45 20.21, 159.46 -1.09 M107.4 59.05 C119.42 46.27, 129.56 33.95, 159.08 -0.75 M119.97 58.2 C136.29 41.71, 150.72 21.38, 169.37 -0.05 M119.05 58.15 C139.21 35.42, 159.51 12.38, 168.48 -0.78 M130.66 57.29 C139.21 46.33, 150.71 35.17, 180.25 1.01 M129.86 58.87 C139.87 46.66, 150.42 35.16, 180.96 0.95 M137.83 58.19 C157.04 40.86, 171.86 22.51, 191.39 -0.13 M139.4 58.99 C159.35 36.86, 178.99 12.52, 190.4 1.47 M148.42 57.15 C158.87 45.89, 168.34 37.06, 189.13 11.09 M151.07 58.78 C163.35 45.62, 174.6 31.14, 189.35 13.37 M159.48 58.91 C170.3 50, 174.86 39.79, 191.9 23.89 M160.24 59.55 C168.16 50.28, 177.53 40.26, 190.4 25.82 M171.62 58.25 C177.18 51.57, 184.46 43.12, 188.13 39.67 M172 58.27 C176.08 54.56, 181.2 49.19, 189.39 38.24 M181.08 59.28 C183.69 57.28, 185.45 55.71, 190.05 50.67 M182.01 59.18 C185.44 56.07, 187.75 52.14, 189.78 50.34" stroke="#fa5252" stroke-width="1" fill="none"></path><path d="M-0.68 -0.29 C61.9 0.54, 122.78 -0.01, 187.88 -1.19 M-0.4 -0.1 C71.04 -1.67, 142.42 -1.32, 189.95 0.41 M187.43 -0.62 C186.88 10.28, 187.58 22.18, 190.86 56.85 M188.74 -0.79 C189.18 12.12, 189.21 26.82, 188.52 56.88 M188.69 56.97 C112.16 58.6, 37.08 55.77, 0.32 56.29 M188.58 56.27 C139.82 58.26, 89.91 58.28, 0.43 57.44 M1.63 57.31 C0.24 46.08, -0.44 32.46, -1.41 -1.56 M-0.57 56.38 C-0.84 37.69, -0.16 17.17, -0.31 -0.25" stroke="#000000" stroke-width="2" fill="none"></path></g><g stroke-opacity="0.7" fill-opacity="0.7" transform="translate(449.8137093043523 866.8150057623224) rotate(0 89.5 12.5)"><text x="89.5" y="18" font-family="Virgil, Segoe UI Emoji" font-size="20px" fill="#000000" text-anchor="middle" style="white-space: pre;" direction="ltr">CF Redis</text></g><g stroke-opacity="0.8" fill-opacity="0.8" stroke-linecap="round" transform="translate(398.82730273208756 475.1666285524228) rotate(0 524.566974022683 239.1397974149898)"><path d="M-0.76 0.14 C296.71 2.76, 592.68 4.18, 1049.32 0.23 M1049.19 -0.68 C1049.93 153.24, 1050.37 305.62, 1049.5 478.08 M1048.68 478.19 C824.01 475.21, 597.82 475.85, 0.03 478.97 M0.37 477.91 C-0.12 355.15, 0.04 232.56, -0.26 -0.85" stroke="#000000" stroke-width="2.5" fill="none" stroke-dasharray="1.5 8"></path></g><g stroke-opacity="0.8" fill-opacity="0.8" transform="translate(1231.5951939745391 451.7301459892085) rotate(0 105.5 12.5)"><text x="0" y="18" font-family="Virgil, Segoe UI Emoji" font-size="20px" fill="#000000" text-anchor="start" style="white-space: pre;" direction="ltr">students.auto.tfvars</text></g></svg>